# xmcd
# Track frame offsets:
# 150
# 11572
# 32212
# 43222
# 53777
# 62705
# 73152
# 89000
# 100570
# 114682
# 126767
# 138495
# 149672
# 160580
# 174017
# 185192
# 197780
# 206925
# 217440
# 236595
#
# Disc length: 3465 seconds
# Revision: 0
# Processed by: cddbd v1.5.2PL0 Copyright (c) Steve Scherf et al.
# Submitted via: VisiTrax 2.10.3.257 - For more info visit www.synapsa.com
#
DISCID=3d0d8714
DTITLE=Eric Clapton - Eric Clapton And Friends Greatest Hits
DYEAR=1997
DGENRE=Blues
TTITLE0=For Your Love
TTITLE1=I'm A Man
TTITLE2=Boom Boom
TTITLE3=Honey in your hips
TTITLE4=Talkin' about you
TTITLE5=Putty (in your hands)
TTITLE6=Louise
TTITLE7=Got Love If You Want It
TTITLE8=Like jimmy red again
TTITLE9=Baby what's wrong
TTITLE10=Got To Hurry
TTITLE11=Heart full of soul
TTITLE12=Evil hearted you
TTITLE13=Still I'm sad
TTITLE14=Shape of thing
TTITLE15=Good Morning Little Schoolgirl
TTITLE16=I Ain't Got You
TTITLE17=I Wish You Would
TTITLE18=Take it easy babe
TTITLE19=Here'tis
EXTD=
EXTT0=
EXTT1=
EXTT2=
EXTT3=
EXTT4=
EXTT5=
EXTT6=
EXTT7=
EXTT8=
EXTT9=
EXTT10=
EXTT11=
EXTT12=
EXTT13=
EXTT14=
EXTT15=
EXTT16=
EXTT17=
EXTT18=
EXTT19=
PLAYORDER=
